ply
format ascii 1.0
element vertex 7
comment vertices
property float x
property float y
property float z
end_header
0.956275641918182373 3.91149473190307617 -0.67634814977645874
1.01935124397277832 4.07627439498901367 -0.612929821014404297
1.03549671173095703 4.04654788970947266 -0.698067724704742432
1.17398190498352051 4.04927158355712891 -0.570743322372436523
1.04493403434753418 3.9962763786315918 -0.691671848297119141
1.06223893165588379 4.02136898040771484 -0.622945129871368408
1.05127692222595215 4.0289306640625 -0.635803282260894775
