ply
format ascii 1.0
element vertex 256
comment vertices
property float x
property float y
property float z
end_header
0.781405091285705566 2.7093970775604248 -0.784186899662017822
2.88936471939086914 8.58483791351318359 3.10865974426269531
-1.49813187122344971 5.58425331115722656 1.16952633857727051
3.76752352714538574 5.03362798690795898 -0.668922662734985352
-0.644902467727661133 8.11815738677978516 3.92333793640136719
1.52240657806396484 5.47549533843994141 0.695794820785522461
-1.02763259410858154 1.5921473503112793 -0.281826108694076538
0.129809677600860596 4.76085281372070312 -0.779421687126159668
-1.04641056060791016 3.57874345779418945 0.411755681037902832
1.61926364898681641 7.44967269897460938 2.24834489822387695
-0.751678824424743652 2.98475313186645508 -0.644730865955352783
1.4757537841796875 4.6312556266784668 -0.729165077209472656
2.88126564025878906 5.29807519912719727 0.654306769371032715
2.70037531852722168 6.02378654479980469 3.6976161003112793
0.573526740074157715 4.57152843475341797 -0.14635893702507019
-0.456979513168334961 4.3134455680847168 -0.61123502254486084
0.825902700424194336 2.55457782745361328 -0.839714407920837402
2.05003166198730469 3.75188231468200684 -0.805038511753082275
-0.94542306661605835 1.86649131774902344 -0.786065459251403809
0.789045393466949463 8.71393013000488281 2.75877475738525391
-0.158906593918800354 7.6826624870300293 2.29493808746337891
0.967222630977630615 2.95194602012634277 -0.634139060974121094
0.950054347515106201 4.62368106842041016 -0.694128274917602539
-1.17633235454559326 5.11694240570068359 0.780806839466094971
2.42177748680114746 4.70783185958862305 -0.484159469604492188
-1.48961329460144043 5.34472417831420898 -0.219771832227706909
-0.814668893814086914 2.07164835929870605 -0.373286515474319458
0.361690253019332886 3.519683837890625 -0.714722990989685059
1.40084457397460938 4.17403221130371094 -0.311055958271026611
0.99292302131652832 3.88416385650634766 -0.637529075145721436
-0.585102438926696777 5.75730514526367188 0.78020942211151123
1.48385274410247803 2.86503863334655762 -0.792824625968933105
2.87043619155883789 4.20749521255493164 0.00976133346557617188
0.541982650756835938 5.78322410583496094 0.808882951736450195
-0.791197657585144043 4.45899057388305664 0.0165787935256958008
1.86343789100646973 7.57927179336547852 3.53514575958251953
0.69686281681060791 2.56195664405822754 -0.868433654308319092
-0.690146505832672119 5.14031982421875 -0.59850621223449707
0.264240682125091553 4.5341038703918457 -0.704267144203186035
-0.971382737159729004 3.25180196762084961 -0.580673754215240479
2.22914361953735352 6.93455362319946289 2.42066526412963867
0.895953655242919922 3.69248819351196289 -0.717933833599090576
0.759324431419372559 2.62157130241394043 -0.877711176872253418
-0.775560379028320312 5.03281927108764648 0.136226952075958252
0.872791767120361328 2.54353237152099609 -0.801599383354187012
3.23969340324401855 4.76535558700561523 -0.635559201240539551
-0.0790070593357086182 2.49436140060424805 -0.738732278347015381
0.58950960636138916 7.77011871337890625 2.02780866622924805
-1.12295544147491455 2.20715785026550293 0.0674968957901000977
0.950305163860321045 4.94777202606201172 -0.490502476692199707
-0.916261136531829834 1.97111630439758301 -0.484073817729949951
-1.18717634677886963 5.91946983337402344 1.69292175769805908
1.33804965019226074 3.98843860626220703 -0.392656624317169189
2.44518065452575684 4.88965606689453125 -0.755849301815032959
-1.18806290626525879 6.96969032287597656 4.19099664688110352
3.16265368461608887 4.6060490608215332 -0.264863908290863037
1.18072950839996338 4.52861309051513672 -0.56228560209274292
-0.921150684356689453 2.74325084686279297 -0.230834811925888062
-0.762207925319671631 4.65712976455688477 -0.724467992782592773
-0.749219357967376709 3.42235016822814941 -0.590500712394714355
-0.75180363655090332 4.168609619140625 -0.69510340690612793
1.2449500560760498 4.27927875518798828 -0.11415630578994751
2.47005200386047363 7.52125072479248047 3.16316819190979004
-0.790793478488922119 5.0998377799987793 -0.77450871467590332
-1.05241227149963379 4.17085361480712891 -0.442812323570251465
-0.987049758434295654 2.04665446281433105 -0.617486655712127686
0.7829781174659729 2.6681523323059082 -0.649739563465118408
-0.595486760139465332 5.13090658187866211 -0.160693883895874023
2.34622550010681152 4.73499727249145508 -0.541542410850524902
2.67238712310791016 5.54860353469848633 0.731077373027801514
2.52545833587646484 4.62825584411621094 -0.269033730030059814
2.64177799224853516 4.39567852020263672 -0.614352881908416748
-1.79045724868774414 5.35560464859008789 -0.0126752257347106934
-1.03434991836547852 3.86127257347106934 0.553950309753417969
1.32524776458740234 4.31526756286621094 -0.0998705625534057617
0.661177515983581543 2.61355447769165039 -0.84147346019744873
1.32631766796112061 4.24178457260131836 -0.396750450134277344
-0.968885123729705811 2.1157069206237793 -0.192496329545974731
1.33638894557952881 8.39225196838378906 3.30026483535766602
3.14821004867553711 4.80310153961181641 0.111326396465301514
0.0339905023574829102 5.38727426528930664 0.600942611694335938
0.194541960954666138 4.08528709411621094 -0.625906884670257568
0.999036312103271484 2.54534697532653809 -0.772300064563751221
1.98123335838317871 5.30525588989257812 0.701345443725585938
1.00908994674682617 4.09806442260742188 -0.560553550720214844
1.06108403205871582 3.00679445266723633 -0.710712432861328125
0.293916404247283936 3.0770869255065918 -0.760938346385955811
-0.524363458156585693 4.31938552856445312 -0.434138387441635132
-0.923213601112365723 5.07554101943969727 -0.00517639517784118652
1.36357438564300537 4.75868082046508789 0.279956579208374023
-1.04696047306060791 3.17102289199829102 -0.535168349742889404
-0.995876431465148926 4.77664566040039062 0.190081477165222168
1.00283408164978027 2.66538619995117188 -0.833450734615325928
0.748814046382904053 2.66693997383117676 -0.867790520191192627
0.813758611679077148 2.9229118824005127 -0.673107743263244629
0.845155060291290283 6.79353189468383789 2.04466032981872559
0.525858581066131592 2.19103217124938965 -0.78414386510848999
-0.242255121469497681 5.13249731063842773 0.211991488933563232
1.67811989784240723 6.72673892974853516 2.17720270156860352
2.44837093353271484 7.64068746566772461 3.79827380180358887
1.54401302337646484 3.57962203025817871 -0.733585238456726074
-0.980141818523406982 1.83997547626495361 -0.609246134757995605
-0.948257327079772949 5.20674848556518555 0.556859731674194336
-1.06458759307861328 3.1244194507598877 -0.607025623321533203
0.710357308387756348 4.76194190979003906 -0.374076217412948608
0.38739311695098877 5.11291408538818359 -0.535273313522338867
-1.02890551090240479 4.24845647811889648 -0.420846521854400635
-1.05004513263702393 5.43419981002807617 0.874488472938537598
-0.82535707950592041 3.52855038642883301 -0.41604912281036377
0.78180307149887085 2.63012790679931641 -0.834353923797607422
0.0813200473785400391 8.02177619934082031 2.26471304893493652
1.03816473484039307 4.0224156379699707 -0.663265049457550049
1.18419826030731201 3.00285434722900391 -0.613615334033966064
0.7591513991355896 2.67632746696472168 -0.763145685195922852
2.04926943778991699 7.01511478424072266 2.08166670799255371
-0.571933984756469727 7.66479110717773438 2.55956840515136719
0.448395580053329468 2.74204111099243164 -0.783298134803771973
2.87967348098754883 4.11657285690307617 -0.351815164089202881
0.879910647869110107 2.63080501556396484 -0.783324837684631348
0.256159454584121704 4.05932140350341797 -0.688278317451477051
1.5854799747467041 7.36431550979614258 3.03912019729614258
0.179647594690322876 4.75268077850341797 -0.706888377666473389
-0.760340631008148193 1.70656347274780273 -0.612327516078948975
-0.306480526924133301 2.21535396575927734 -0.639323174953460693
-0.681007623672485352 5.03803634643554688 -0.610027849674224854
-0.888629317283630371 2.17631721496582031 -0.760219931602478027
1.40463447570800781 4.30832767486572266 -0.158956646919250488
1.22604537010192871 4.14079952239990234 -0.487907171249389648
-0.486195623874664307 7.80812358856201172 3.66485214233398438
1.0130232572555542 4.35401296615600586 -0.347824633121490479
1.01930844783782959 2.58111763000488281 -0.754138171672821045
-0.916539132595062256 3.52761530876159668 -0.351489812135696411
-0.599740684032440186 4.64355373382568359 -0.725659728050231934
-0.977936506271362305 1.98464179039001465 -0.0915980339050292969
0.828451216220855713 4.51796531677246094 0.116798996925354004
-1.03692936897277832 2.11777091026306152 -0.499087274074554443
-1.54530763626098633 5.62981891632080078 0.279318094253540039
-0.901088297367095947 4.11635351181030273 -0.317591875791549683
-0.360919952392578125 3.57769680023193359 -0.703972578048706055
1.08945894241333008 3.9667057991027832 -0.653937935829162598
0.757532775402069092 2.64863348007202148 -0.784774720668792725
1.4467310905456543 4.57934951782226562 -0.574128329753875732
-0.865485191345214844 1.79953992366790771 -0.456021726131439209
1.51764309406280518 4.12102890014648438 -0.406753093004226685
1.08639287948608398 3.99942207336425781 -0.572192370891571045
2.74594640731811523 4.52070045471191406 -0.430591076612472534
-0.888947367668151855 5.40629482269287109 0.89501422643661499
1.46699094772338867 4.27281379699707031 -0.282183527946472168
-0.843867778778076172 2.19392800331115723 -0.158961653709411621
2.45624160766601562 3.96541690826416016 -0.762535393238067627
-0.516964852809906006 4.5658106803894043 -0.761911094188690186
1.16742205619812012 4.45730018615722656 -0.361569434404373169
-0.946861982345581055 3.3552548885345459 -0.502498805522918701
-1.10844302177429199 3.59371042251586914 0.531507611274719238
1.17023813724517822 2.8062748908996582 -0.794611811637878418
3.01827597618103027 5.00470876693725586 0.415109872817993164
3.2615501880645752 4.12874794006347656 -0.271941632032394409
-1.37433123588562012 5.28866958618164062 -0.133093595504760742
-1.20205974578857422 4.41436672210693359 0.868722140789031982
0.743473529815673828 4.09626007080078125 -0.637009501457214355
3.17195320129394531 5.00657224655151367 0.230423271656036377
0.742327690124511719 2.81168866157531738 -0.807617425918579102
2.85499668121337891 4.73464059829711914 -0.489210903644561768
-0.778253316879272461 3.45316696166992188 -0.682329893112182617
3.04732990264892578 4.11931991577148438 -0.351066827774047852
1.31383347511291504 4.10448503494262695 -0.376542508602142334
1.70796310901641846 8.41292858123779297 3.09293484687805176
1.31295692920684814 4.47821760177612305 -0.474573254585266113
0.888654708862304688 5.06532812118530273 0.362563073635101318
0.806326687335968018 2.58146214485168457 -0.703799605369567871
1.87458550930023193 4.9754643440246582 0.570932447910308838
2.45101451873779297 5.20742273330688477 0.696561992168426514
-0.335809946060180664 4.78551769256591797 -0.537494659423828125
-0.704992353916168213 3.47352099418640137 -0.568146347999572754
-0.909314155578613281 5.14190006256103516 0.0427844822406768799
-0.986541211605072021 2.09213113784790039 -0.359324216842651367
-0.820617496967315674 5.02245283126831055 0.124550014734268188
1.1855311393737793 7.01914548873901367 2.08382749557495117
-1.09564757347106934 5.09903335571289062 -0.381303310394287109
-0.0186865925788879395 4.33436346054077148 -0.306855231523513794
0.836202025413513184 2.56016349792480469 -0.782733559608459473
0.563215076923370361 5.27988719940185547 -0.333680093288421631
-0.50404059886932373 4.49810600280761719 -0.589196443557739258
-0.969250738620758057 3.0544281005859375 -0.22835114598274231
-0.947452247142791748 1.80151581764221191 -0.222268223762512207
-1.13380801677703857 2.45411324501037598 -0.152060568332672119
1.22603929042816162 4.08193874359130859 -0.412645787000656128
2.67568540573120117 4.72235631942749023 -0.534833371639251709
-0.0113051831722259521 3.22293901443481445 -0.763140559196472168
0.897057712078094482 2.8571019172668457 -0.621748924255371094
-0.349033147096633911 5.74502849578857422 0.860118567943572998
1.21508288383483887 4.01381731033325195 -0.533421039581298828
2.40303659439086914 4.51940441131591797 0.173033237457275391
0.334503829479217529 5.76320028305053711 0.753967165946960449
-0.967871010303497314 5.03410577774047852 0.377084493637084961
0.744745075702667236 2.60211849212646484 -0.753426253795623779
-0.820917010307312012 5.06201457977294922 0.103872358798980713
0.188794851303100586 2.91385483741760254 -0.72291100025177002
0.233358085155487061 7.31267976760864258 2.1472172737121582
-1.08309006690979004 4.64902639389038086 0.470603585243225098
-1.08511602878570557 5.85970783233642578 2.24596071243286133
0.805121183395385742 2.61890673637390137 -0.755145907402038574
-0.125543579459190369 4.97766971588134766 -0.572697997093200684
1.12322306632995605 4.17546415328979492 -0.406671881675720215
-0.955447494983673096 1.87168431282043457 -0.368987798690795898
0.825415313243865967 2.55922627449035645 -0.783714830875396729
-0.599812626838684082 2.14055800437927246 -0.358472824096679688
-0.931055784225463867 2.70054435729980469 -0.0607450008392333984
0.633800804615020752 7.23359489440917969 2.06520223617553711
2.92355585098266602 4.27982902526855469 -0.327042639255523682
0.900589704513549805 2.61726522445678711 -0.807101547718048096
0.968273162841796875 2.59680509567260742 -0.792541146278381348
3.01813340187072754 5.07555627822875977 0.415149271488189697
-1.03739941120147705 3.19786596298217773 -0.631677329540252686
0.757983505725860596 2.72351837158203125 -0.849625349044799805
2.04456210136413574 7.93292713165283203 2.62427806854248047
0.671201944351196289 2.60906887054443359 -0.779838204383850098
1.24552226066589355 7.79845285415649414 2.2722620964050293
1.28237366676330566 4.25090312957763672 -0.146298229694366455
-1.05147993564605713 3.20121073722839355 -0.634930670261383057
1.35254383087158203 4.77835178375244141 0.22772526741027832
-0.585598945617675781 4.4286656379699707 -0.532418191432952881
1.27205193042755127 4.20287322998046875 -0.566623926162719727
-0.501749813556671143 5.49801445007324219 0.427182912826538086
0.215863406658172607 4.97553539276123047 0.184363424777984619
0.91919410228729248 2.52797269821166992 -0.824697732925415039
2.63898682594299316 4.80941295623779297 -0.586688399314880371
0.54936748743057251 2.9737398624420166 -0.733726263046264648
-0.25224187970161438 4.33349418640136719 -0.707829117774963379
1.23239755630493164 5.53889274597167969 0.694707810878753662
0.662027359008789062 2.81258034706115723 -0.779603123664855957
-0.772405326366424561 2.09756183624267578 -0.785055696964263916
0.958486676216125488 2.66878509521484375 -0.825096607208251953
0.615608572959899902 2.58701825141906738 -0.847832441329956055
1.2532660961151123 3.16872549057006836 -0.75968778133392334
-1.51796650886535645 5.14052867889404297 -0.187825053930282593
-0.880769848823547363 3.41185426712036133 -0.486291587352752686
2.97424626350402832 4.02134513854980469 -0.0400433540344238281
1.04396843910217285 4.30158233642578125 -0.259704232215881348
2.82446861267089844 5.36833429336547852 0.635725021362304688
0.93887794017791748 2.5668036937713623 -0.865721940994262695
-0.954254031181335449 1.97859704494476318 -0.0478259623050689697
0.892072916030883789 2.64766502380371094 -0.838111400604248047
1.08064019680023193 4.11770391464233398 -0.384171962738037109
1.31966447830200195 2.65871953964233398 -0.817931413650512695
-0.792087137699127197 3.5414886474609375 -0.572419285774230957
1.06766617298126221 4.00327205657958984 -0.587713301181793213
0.80095970630645752 2.61605000495910645 -0.742480278015136719
1.29117369651794434 3.97115826606750488 -0.569223761558532715
0.811791539192199707 2.64815068244934082 -0.77440798282623291
1.165305495262146 4.18040943145751953 -0.366619646549224854
-0.302162051200866699 5.4919586181640625 0.680977225303649902
1.54575014114379883 4.25401163101196289 -0.432398587465286255
-0.97664719820022583 4.88094234466552734 -0.132977187633514404
0.898599505424499512 5.65971088409423828 0.744930267333984375
-0.567961633205413818 4.18520498275756836 -0.569358885288238525
