ply
format ascii 1.0
element vertex 256
comment vertices
property float x
property float y
property float z
end_header
0.828892529010772705 2.57575035095214844 -0.819602310657501221
2.93717837333679199 8.88722133636474609 2.85367059707641602
-1.49262428283691406 5.96271753311157227 0.953113675117492676
3.74560379981994629 5.13113546371459961 -0.732507288455963135
-0.655864894390106201 8.51014518737792969 3.67954540252685547
1.67096328735351562 5.34476852416992188 0.88553166389465332
-1.0551983118057251 1.55928719043731689 -0.284589648246765137
0.227123618125915527 4.77335643768310547 -0.775123000144958496
-1.02628743648529053 3.5561985969543457 0.454261690378189087
2.02703022956848145 6.60037422180175781 2.21309614181518555
-1.28558731079101562 2.9375002384185791 -0.639281392097473145
1.47029829025268555 4.76338911056518555 -0.753643274307250977
2.82849478721618652 5.11081504821777344 0.966276049613952637
2.6855018138885498 6.42627239227294922 3.45657515525817871
1.66832804679870605 2.01189732551574707 -0.775828123092651367
-0.540803194046020508 4.40300178527832031 -0.643547713756561279
0.822699964046478271 2.56838130950927734 -0.834070563316345215
2.13190937042236328 3.6815032958984375 -0.795257747173309326
-1.08569431304931641 1.82762444019317627 -0.701380491256713867
0.791252851486206055 9.05390167236328125 2.53088283538818359
-0.160248085856437683 7.84703397750854492 2.19595813751220703
0.892284810543060303 2.86564445495605469 -0.708045005798339844
0.750067234039306641 4.59445619583129883 -0.711243331432342529
-1.0429922342300415 4.92149448394775391 1.05899310111999512
2.44447946548461914 4.83695793151855469 -0.632744967937469482
-1.51527869701385498 5.27813291549682617 -0.346798747777938843
-0.906529128551483154 2.06946277618408203 -0.308501094579696655
0.598996460437774658 3.43252730369567871 -0.699860274791717529
1.33236479759216309 4.05406999588012695 -0.430560439825057983
0.956275641918182373 3.91149473190307617 -0.67634814977645874
-0.63130795955657959 5.51357364654541016 1.11234641075134277
1.57925796508789062 2.8574683666229248 -0.760421454906463623
2.80737709999084473 2.13791131973266602 -0.622947990894317627
0.608479678630828857 5.66320085525512695 0.931724905967712402
-0.91987907886505127 4.49470138549804688 0.110084906220436096
1.85234713554382324 7.97246122360229492 3.29614901542663574
0.831892192363739014 2.56506085395812988 -0.823240578174591064
-0.855727612972259521 4.95965147018432617 -0.640764236450195312
0.448545277118682861 4.51155567169189453 -0.691553294658660889
-1.09368574619293213 3.24713969230651855 -0.6036568284034729
2.33448028564453125 6.90309858322143555 2.13642024993896484
0.779379129409790039 3.62681198120117188 -0.729872584342956543
0.844481587409973145 2.58207607269287109 -0.838156521320343018
-0.843278825283050537 4.88699054718017578 0.327217757701873779
0.815924644470214844 2.55872607231140137 -0.82254326343536377
3.4541778564453125 4.64416790008544922 -0.628178775310516357
-0.0317312367260456085 2.64147520065307617 -0.719295382499694824
1.02637267112731934 7.56174993515014648 1.88611340522766113
-1.15250015258789062 2.13808655738830566 0.17713773250579834
1.54386401176452637 3.64454984664916992 -0.849301338195800781
-0.959925353527069092 1.92115354537963867 -0.44219970703125
-1.18066537380218506 6.20210790634155273 1.45322775840759277
1.30863845348358154 3.87823605537414551 -0.518268823623657227
2.44201993942260742 4.92053365707397461 -0.835022270679473877
-1.20478260517120361 7.37417411804199219 3.94842672348022461
3.64796924591064453 3.73181438446044922 -0.610417962074279785
1.14982712268829346 4.52035856246948242 -0.575431764125823975
-0.937612712383270264 2.78394055366516113 -0.257244884967803955
-0.872866690158843994 4.60016870498657227 -0.699170291423797607
-0.873103559017181396 3.47940611839294434 -0.590278744697570801
-0.830047607421875 4.23468494415283203 -0.690169811248779297
1.31219255924224854 4.15421056747436523 -0.361528277397155762
2.46358704566955566 7.90743541717529297 2.92809081077575684
-1.06497776508331299 4.93242597579956055 -0.760353803634643555
-1.10512363910675049 4.17551326751708984 -0.457798480987548828
-1.05978918075561523 1.97191500663757324 -0.564797520637512207
0.820022940635681152 2.55721116065979004 -0.770116806030273438
-0.512537121772766113 5.00029611587524414 -0.339298844337463379
2.40416979789733887 4.87538051605224609 -0.71991962194442749
2.68577075004577637 5.259674072265625 1.18375229835510254
2.56346654891967773 4.68252849578857422 -0.346766859292984009
2.56638240814208984 4.02163028717041016 -0.748336851596832275
-2.14832139015197754 5.05023002624511719 -0.105748377740383148
-1.06517219543457031 3.70066308975219727 0.775506138801574707
1.34682381153106689 4.13981866836547852 -0.357893407344818115
0.833195209503173828 2.57449054718017578 -0.827512741088867188
1.28015530109405518 4.12084531784057617 -0.530477225780487061
-0.956403434276580811 2.12592625617980957 -0.111778140068054199
1.33820569515228271 8.76257228851318359 3.05919480323791504
3.14212608337402344 4.84366798400878906 0.138982817530632019
0.0683241710066795349 5.2301936149597168 0.897988200187683105
0.233081042766571045 4.12157535552978516 -0.631545543670654297
0.870468854904174805 2.53102374076843262 -0.800402700901031494
1.96338212490081787 5.04153108596801758 1.14526534080505371
1.01935124397277832 4.07627439498901367 -0.612929821014404297
0.967533707618713379 2.95641922950744629 -0.758674204349517822
0.378234446048736572 3.10526180267333984 -0.701849818229675293
-0.55260169506072998 4.37542152404785156 -0.563854038715362549
-0.907503843307495117 5.01055622100830078 0.102269992232322693
1.52852892875671387 4.40304088592529297 -0.0154377222061157227
-1.15809416770935059 3.16633892059326172 -0.556218266487121582
-0.972165942192077637 4.73887395858764648 0.317403078079223633
0.883115768432617188 2.59063243865966797 -0.819709479808807373
0.837193310260772705 2.60302400588989258 -0.83014833927154541
0.799918174743652344 2.79079580307006836 -0.791007757186889648
1.1339038610458374 3.56624460220336914 1.25020921230316162
0.534797728061676025 1.53900301456451416 -0.882727086544036865
0.410187214612960815 3.94284868240356445 -0.099542468786239624
1.8026120662689209 4.43859672546386719 1.51361501216888428
2.43738555908203125 8.03334712982177734 3.55626702308654785
1.57028639316558838 3.62915158271789551 -0.735318481922149658
-1.09446859359741211 1.79178595542907715 -0.559174239635467529
-0.992322742938995361 5.03275632858276367 0.741459906101226807
-1.16247260570526123 3.11457324028015137 -0.610231220722198486
2.20775938034057617 2.30216455459594727 -0.913738131523132324
0.102879345417022705 4.2896270751953125 -0.754703044891357422
-1.06978988647460938 4.26497793197631836 -0.443600475788116455
-0.963199257850646973 5.14928388595581055 1.06813716888427734
-0.933730483055114746 3.54680275917053223 -0.424921810626983643
0.842779040336608887 2.57260584831237793 -0.827019929885864258
0.139664188027381897 7.93381118774414062 2.26337432861328125
1.03549671173095703 4.04654788970947266 -0.698067724704742432
1.0885016918182373 2.96529173851013184 -0.679529368877410889
0.837222278118133545 2.56606078147888184 -0.811553776264190674
2.67121219635009766 6.51904296875 1.91891956329345703
-0.173368602991104126 7.6498866081237793 2.24264883995056152
0.588048577308654785 2.73891711235046387 -0.795150637626647949
2.95839953422546387 2.99922513961791992 -0.766127228736877441
0.818671286106109619 2.5630040168762207 -0.814947128295898438
0.289897382259368896 4.10161113739013672 -0.686166942119598389
1.58540499210357666 7.75096559524536133 2.8052525520324707
0.32005774974822998 4.73863554000854492 -0.705588400363922119
-0.842628538608551025 1.6013643741607666 -0.654144465923309326
-0.184061542153358459 1.97762084007263184 -0.746177911758422852
-0.893326282501220703 4.76582241058349609 -0.646719694137573242
-1.11300921440124512 2.13326907157897949 -0.738639235496520996
1.39161932468414307 4.12847185134887695 -0.390129655599594116
1.17398190498352051 4.04927158355712891 -0.570743322372436523
-0.497782468795776367 8.20022964477539062 3.42438268661499023
1.04961109161376953 4.24906635284423828 -0.524568259716033936
0.890099585056304932 2.55941915512084961 -0.807072222232818604
-1.03071880340576172 3.53612971305847168 -0.395929694175720215
-0.616505622863769531 4.61418485641479492 -0.67008364200592041
-0.971749722957611084 2.0045781135559082 -0.0171889439225196838
2.33567023277282715 1.44195699691772461 -0.549325048923492432
-1.15829670429229736 2.09205865859985352 -0.42516779899597168
-1.61486852169036865 5.41514158248901367 0.428271889686584473
-0.939217329025268555 4.14846467971801758 -0.34857061505317688
-0.356735289096832275 3.59224247932434082 -0.652234375476837158
1.04493403434753418 3.9962763786315918 -0.691671848297119141
0.843536794185638428 2.56628108024597168 -0.815052807331085205
1.35068106651306152 4.63353252410888672 -0.626275002956390381
-0.942750811576843262 1.82182013988494873 -0.408382207155227661
1.51317512989044189 4.00714683532714844 -0.518657147884368896
1.06223893165588379 4.02136898040771484 -0.622945129871368408
2.68455719947814941 4.56310224533081055 -0.498097807168960571
-0.938753426074981689 5.1827692985534668 1.13247883319854736
1.40478837490081787 4.14047956466674805 -0.418585121631622314
-0.893396556377410889 2.18537759780883789 -0.0842829495668411255
2.58536100387573242 3.9185636043548584 -0.756281554698944092
-0.556209444999694824 4.54801559448242188 -0.715130627155303955
1.13077092170715332 4.40986108779907227 -0.505812466144561768
-1.04869723320007324 3.38159322738647461 -0.534796059131622314
-1.06631231307983398 3.58456993103027344 0.675379753112792969
1.02949023246765137 2.6805717945098877 -0.79494398832321167
2.9902045726776123 4.89137554168701172 0.6685371994972229
4.21288871765136719 2.68667936325073242 -0.71520620584487915
-1.14691710472106934 5.15507316589355469 -0.287916809320449829
-0.742058396339416504 4.44613504409790039 0.726779460906982422
0.791617095470428467 3.95071053504943848 -0.702915728092193604
3.07321763038635254 4.90717554092407227 0.486498206853866577
0.799310684204101562 2.63445901870727539 -0.817717671394348145
2.72770452499389648 4.71743154525756836 -0.557496070861816406
-0.879108130931854248 3.50036764144897461 -0.640939414501190186
3.44912314414978027 3.34565114974975586 -0.634867191314697266
1.27901887893676758 4.03569364547729492 -0.487720847129821777
1.71980082988739014 8.757843017578125 2.85419058799743652
1.22300565242767334 4.38904142379760742 -0.537565946578979492
1.45963168144226074 4.3118128776550293 0.272590070962905884
0.827365756034851074 2.5722954273223877 -0.799333512783050537
1.93224060535430908 4.86724519729614258 0.827446222305297852
2.39222002029418945 5.03428792953491211 1.06679117679595947
-0.334586113691329956 4.71053791046142578 -0.589633345603942871
-0.776585102081298828 3.54654622077941895 -0.568059921264648438
-0.898543238639831543 5.04982089996337891 0.185991436243057251
-1.01169586181640625 2.09978652000427246 -0.271087110042572021
-0.875836431980133057 4.88905239105224609 0.313145428895950317
2.25021123886108398 4.94460010528564453 1.52413403987884521
-1.45212399959564209 4.81112337112426758 -0.547252178192138672
0.440420985221862793 1.87914061546325684 -0.693803548812866211
0.824695110321044922 2.56707882881164551 -0.819613993167877197
1.09678840637207031 4.78262853622436523 -0.61385953426361084
-0.552523255348205566 4.51441764831542969 -0.640334069728851318
-1.08768868446350098 3.0850989818572998 -0.306214392185211182
-0.960421383380889893 1.84592235088348389 -0.138610720634460449
-1.47062444686889648 2.39426994323730469 -0.209512755274772644
1.20437455177307129 4.02009248733520508 -0.520729303359985352
2.59686589241027832 4.74161052703857422 -0.622081875801086426
0.0457246825098991394 3.16794919967651367 -0.735191702842712402
0.822182774543762207 2.69462370872497559 -0.703923523426055908
-0.437778472900390625 5.49816989898681641 1.16846108436584473
1.14241862297058105 4.00362920761108398 -0.601458370685577393
3.49326348304748535 2.90440559387207031 -0.501656591892242432
0.265502601861953735 5.59259939193725586 1.01342189311981201
-0.944356620311737061 4.92950439453125 0.534171879291534424
0.841098487377166748 2.57125568389892578 -0.812901556491851807
-0.862788081169128418 4.9038538932800293 0.289845883846282959
0.274345457553863525 2.85446834564208984 -0.710066556930541992
0.612458944320678711 4.95619487762451172 1.73700761795043945
-1.10439860820770264 4.57998371124267578 0.56786191463470459
-1.10675537586212158 6.27381038665771484 2.01668190956115723
0.830982208251953125 2.56860899925231934 -0.811900794506072998
-0.0824327617883682251 4.86414670944213867 -0.638825416564941406
1.15444982051849365 4.09869670867919922 -0.519672632217407227
-1.00324785709381104 1.86238694190979004 -0.313725471496582031
0.828148841857910156 2.56832146644592285 -0.820287227630615234
-0.325595438480377197 2.17765474319458008 -0.324587643146514893
-0.98785322904586792 2.8178246021270752 -0.110551103949546814
0.683588802814483643 4.94864463806152344 1.4288179874420166
3.3729255199432373 3.69285202026367188 -0.692699790000915527
0.824328601360321045 2.56625556945800781 -0.823110282421112061
0.875392436981201172 2.57059764862060547 -0.825534820556640625
2.97289443016052246 4.92701816558837891 0.702319979667663574
-1.11782169342041016 3.18066072463989258 -0.622749269008636475
0.82496333122253418 2.61105442047119141 -0.827319681644439697
2.27798938751220703 8.01676273345947266 2.36992549896240234
0.834328532218933105 2.57312536239624023 -0.808876574039459229
1.86769020557403564 7.87925195693969727 2.16020083427429199
1.326926589012146 4.06998538970947266 -0.405435055494308472
-1.13015139102935791 3.18031907081604004 -0.621923863887786865
1.46461260318756104 4.4382929801940918 -0.0651253461837768555
-0.593256831169128418 4.45183038711547852 -0.611473739147186279
1.26665878295898438 4.12565803527832031 -0.623334825038909912
-0.456446856260299683 5.23982048034667969 0.57876962423324585
0.964125990867614746 2.26295208930969238 -0.418568074703216553
0.831319272518157959 2.52742338180541992 -0.836725890636444092
2.48145699501037598 4.86633825302124023 -0.731306254863739014
0.636519193649291992 2.97857379913330078 -0.739937067031860352
-0.324965685606002808 4.41225194931030273 -0.685758650302886963
1.2745518684387207 5.22342252731323242 0.942615389823913574
0.790263175964355469 2.66935491561889648 -0.816018402576446533
-0.91671222448348999 2.00272250175476074 -0.7899513840675354
0.869451045989990234 2.58954262733459473 -0.825411856174468994
0.811529219150543213 2.56022047996520996 -0.830364704132080078
1.29448175430297852 3.10874748229980469 -0.736746430397033691
-1.29139065742492676 4.53692150115966797 -0.474240392446517944
-1.00781607627868652 3.42671847343444824 -0.491068094968795776
2.94691371917724609 3.14788293838500977 -0.424748599529266357
1.13633894920349121 4.19984579086303711 -0.416582167148590088
2.78977179527282715 5.18287420272827148 0.97533947229385376
0.831073522567749023 2.53682613372802734 -0.850505828857421875
-0.962125718593597412 1.98718798160552979 0.0223690122365951538
0.819129407405853271 2.57104063034057617 -0.833577513694763184
1.08315372467041016 4.06227493286132812 -0.488005280494689941
1.37637960910797119 2.56035065650939941 -0.773044109344482422
-0.899877607822418213 3.59912776947021484 -0.536253631114959717
1.05127692222595215 4.0289306640625 -0.635803282260894775
0.83124089241027832 2.56913900375366211 -0.808444559574127197
1.21558487415313721 3.9837644100189209 -0.617110848426818848
0.83974069356918335 2.55033493041992188 -0.823869645595550537
1.17735493183135986 4.09330415725708008 -0.485376417636871338
-0.270930051803588867 5.32820987701416016 0.94229280948638916
1.50960421562194824 4.13114833831787109 -0.544388771057128906
-1.0113905668258667 4.75632572174072266 -0.24576762318611145
0.862097024917602539 5.66477632522583008 0.842974603176116943
-0.646851181983947754 4.26085615158081055 -0.622900247573852539
